<svg width="22" height="18" viewBox="0 0 22 18" fill="none" xmlns="http://www.w3.org/2000/svg">
<g id="IMAGE" clip-path="url(#clip0_215_3162)">
<path id="Vector" d="M20.3009 15.6052C20.841 14.8453 21.3513 11.371 21.3513 8.43769C21.3513 5.70393 20.8699 2.07818 20.3026 1.27372C20.2024 1.1306 20.0615 1.02083 19.8982 0.958593C16.0948 -0.481378 2.45224 -0.153117 1.19172 1.17393C1.12694 1.24221 1.06041 1.33938 1.01664 1.44354C0.316355 3.14612 0.0625 6.48913 0.0625 8.43769C0.0625 10.3959 0.325109 13.7914 1.02015 15.4388C1.06304 15.5395 1.12694 15.6332 1.19084 15.7014C2.45662 17.032 16.0983 17.3559 19.8982 15.9168C20.0604 15.8552 20.2006 15.7467 20.3009 15.6052ZM13.8451 8.43856L19.1288 3.41924C19.7564 6.37533 19.7652 10.4571 19.1288 13.4579L13.846 8.43856H13.8451ZM17.8131 2.25763L10.7069 9.00755L3.59984 2.25676C7.3709 1.59586 14.0237 1.59236 17.814 2.25676L17.8131 2.25763ZM2.28417 13.457C1.65653 10.5009 1.64778 6.4191 2.28417 3.41836L7.56786 8.43769L2.28417 13.457ZM3.59896 14.6186L8.83626 9.64394L10.1038 10.8476C10.2663 11.0019 10.4819 11.088 10.706 11.088C10.9302 11.088 11.1458 11.0019 11.3083 10.8476L12.5758 9.64394L17.8148 14.6186C14.0438 15.2795 7.39016 15.2821 3.60071 14.6186H3.59896Z" fill="white"/>
</g>
<defs>
<clipPath id="clip0_215_3162">
<rect width="21.8841" height="17.5072" fill="white" transform="translate(0.0625)"/>
</clipPath>
</defs>
</svg>
