<svg width="22" height="22" viewBox="0 0 22 22" fill="none" xmlns="http://www.w3.org/2000/svg">
<g id="Group">
<path id="Vector" d="M14.3428 8.06693C14.3419 7.11628 13.9639 6.20484 13.2917 5.53263C12.6194 4.86043 11.708 4.48237 10.7574 4.48145C9.80671 4.48237 8.89527 4.86043 8.22306 5.53263C7.55085 6.20484 7.1728 7.11628 7.17188 8.06693C7.17188 8.30466 7.26631 8.53266 7.43442 8.70076C7.60252 8.86886 7.83051 8.9633 8.06825 8.9633C8.30598 8.9633 8.53397 8.86886 8.70208 8.70076C8.87018 8.53266 8.96462 8.30466 8.96462 8.06693C8.96508 7.59161 9.15411 7.13589 9.49021 6.79978C9.82631 6.46368 10.282 6.27465 10.7574 6.27419C11.2327 6.27465 11.6884 6.46368 12.0245 6.79978C12.3606 7.13589 12.5496 7.59161 12.5501 8.06693C12.5496 8.54225 12.3606 8.99797 12.0245 9.33408C11.6884 9.67018 11.2327 9.85921 10.7574 9.85967C10.5196 9.85967 10.2916 9.95411 10.1235 10.1222C9.95543 10.2903 9.86099 10.5183 9.86099 10.756C9.86099 10.9938 9.95543 11.2218 10.1235 11.3899C10.2916 11.558 10.5196 11.6524 10.7574 11.6524C11.708 11.6515 12.6194 11.2734 13.2917 10.6012C13.9639 9.92902 14.3419 9.01757 14.3428 8.06693Z" fill="white"/>
<path id="Vector_2" d="M20.6165 19.7202H12.7978C15.0939 17.1247 19.272 11.9321 19.272 8.51552C19.272 3.82008 15.4519 0 10.7565 0C6.06101 0 2.24093 3.82008 2.24093 8.51552C2.24093 11.9321 6.41991 17.1247 8.71511 19.7202H5.37823C5.14049 19.7202 4.9125 19.8146 4.7444 19.9827C4.57629 20.1508 4.48185 20.3788 4.48185 20.6165C4.48185 20.8543 4.57629 21.0823 4.7444 21.2504C4.9125 21.4185 5.14049 21.5129 5.37823 21.5129H20.6165C20.8543 21.5129 21.0823 21.4185 21.2504 21.2504C21.4185 21.0823 21.5129 20.8543 21.5129 20.6165C21.5129 20.3788 21.4185 20.1508 21.2504 19.9827C21.0823 19.8146 20.8543 19.7202 20.6165 19.7202ZM10.7565 1.79274C14.4636 1.79274 17.4792 4.80836 17.4792 8.51552C17.4792 11.3762 13.098 16.7501 10.7565 19.3061C8.41486 16.7509 4.03367 11.3797 4.03367 8.51552C4.03367 4.80836 7.04929 1.79274 10.7565 1.79274ZM0.896371 21.5129H1.79274C2.03047 21.5129 2.25847 21.4185 2.42657 21.2504C2.59467 21.0823 2.68911 20.8543 2.68911 20.6165C2.68911 20.3788 2.59467 20.1508 2.42657 19.9827C2.25847 19.8146 2.03047 19.7202 1.79274 19.7202H0.896371C0.658639 19.7202 0.430643 19.8146 0.262541 19.9827C0.0944388 20.1508 0 20.3788 0 20.6165C0 20.8543 0.0944388 21.0823 0.262541 21.2504C0.430643 21.4185 0.658639 21.5129 0.896371 21.5129Z" fill="white"/>
</g>
</svg>
