<svg width="23" height="23" viewBox="0 0 23 23" fill="none" xmlns="http://www.w3.org/2000/svg">
<g id="Group">
<path id="Vector" d="M3.42363 17.2184C3.86909 17.7458 4.34678 18.2452 4.85397 18.7135L4.85835 18.717C7.28815 20.9356 10.3826 22.2895 13.661 22.5686C13.8159 22.5809 13.9717 22.5879 14.1293 22.5879C14.8707 22.5879 15.6314 22.4391 16.3554 22.1484C17.3863 21.736 18.2837 21.0476 18.9491 20.1587L19.5005 19.4234C19.6368 19.2424 19.7029 19.0181 19.6868 18.7921C19.6707 18.5661 19.5735 18.3535 19.413 18.1936L15.6489 14.4295C15.4725 14.2531 15.2332 14.154 14.9837 14.154C14.7342 14.154 14.4949 14.2531 14.3184 14.4295L12.9642 15.7828C12.9206 15.8266 12.8688 15.8614 12.8117 15.8852C12.7546 15.9089 12.6934 15.9211 12.6316 15.9211C12.5697 15.9211 12.5085 15.9089 12.4514 15.8852C12.3944 15.8614 12.3425 15.8266 12.2989 15.7828L6.80516 10.2899C6.71728 10.2015 6.66795 10.0819 6.66795 9.95728C6.66795 9.83262 6.71728 9.71304 6.80516 9.62464L8.15847 8.26958C8.33465 8.093 8.4336 7.85374 8.4336 7.6043C8.4336 7.35486 8.33465 7.1156 8.15847 6.93903L4.39441 3.17497C4.23417 3.01498 4.02165 2.91807 3.79578 2.90199C3.56991 2.88591 3.34581 2.95175 3.16452 3.08743L2.4301 3.63804C1.54081 4.3047 0.852139 5.20324 0.439521 6.23523C0.0893764 7.10885 -0.0559338 8.0341 0.0193474 8.90859C0.280044 11.9612 1.46791 14.8602 3.42363 17.2184ZM2.18762 6.93552C2.47214 6.22438 2.94703 5.60533 3.56019 5.14628L3.6416 5.08501L6.16264 7.60605L5.47373 8.29496C5.03348 8.73652 4.78626 9.33462 4.78626 9.95815C4.78626 10.5817 5.03348 11.1798 5.47373 11.6213L10.9675 17.1169C11.1856 17.336 11.4449 17.5097 11.7306 17.6279C12.0162 17.7462 12.3224 17.8066 12.6316 17.8058C13.2601 17.8058 13.8509 17.5607 14.2948 17.1169L14.9845 16.428L17.5056 18.949L17.4426 19.0322C16.9839 19.6449 16.3659 20.1176 15.6559 20.403C15.0764 20.641 14.4494 20.7405 13.8247 20.6936C10.5412 20.4153 7.48412 18.9063 5.26627 16.4691C3.32563 14.3353 2.14104 11.6222 1.89525 8.7484C1.84448 8.16541 1.94602 7.53865 2.18762 6.93552ZM15.0589 2.93026e-05C13.8891 -0.0032555 12.735 0.269673 11.6906 0.796609C11.4676 0.908743 11.2983 1.10487 11.2199 1.34183C11.1415 1.5788 11.1604 1.8372 11.2726 2.06019C11.3847 2.28318 11.5808 2.4525 11.8178 2.53088C12.0548 2.60927 12.3132 2.59031 12.5362 2.47818C13.3186 2.0841 14.1829 1.88016 15.0589 1.88293C16.556 1.88455 17.9912 2.4799 19.0499 3.53837C20.1085 4.59684 20.7041 6.032 20.7059 7.52902C20.7059 8.41664 20.5055 9.26574 20.1098 10.0527C19.9977 10.2757 19.9787 10.5341 20.0571 10.7711C20.1355 11.008 20.3048 11.2041 20.5278 11.3163C20.7508 11.4284 21.0092 11.4474 21.2461 11.369C21.4831 11.2906 21.6792 11.1213 21.7914 10.8983C22.3185 9.85393 22.5915 8.69977 22.5879 7.5299C22.5879 3.37805 19.2108 2.93026e-05 15.0598 2.93026e-05H15.0589Z" fill="white"/>
<path id="Vector_2" d="M17.5804 9.84083C17.6903 9.89748 17.8103 9.93182 17.9336 9.94188C18.0568 9.95193 18.1809 9.93751 18.2985 9.89943C18.4162 9.86135 18.5251 9.80037 18.6191 9.72001C18.7131 9.63964 18.7902 9.54147 18.8461 9.43116C19.1455 8.84467 19.2978 8.20566 19.2978 7.52988C19.2967 6.40681 18.85 5.33007 18.0559 4.53594C17.2618 3.74181 16.185 3.29516 15.0619 3.294C14.4012 3.2907 13.7493 3.44558 13.1607 3.74568C12.9385 3.85944 12.7706 4.0568 12.6939 4.29434C12.6173 4.53189 12.6381 4.79016 12.7519 5.01233C12.8656 5.23451 13.063 5.4024 13.3005 5.47906C13.5381 5.55573 13.7963 5.53489 14.0185 5.42113C14.3363 5.25919 14.6873 5.17603 15.0619 5.17603C15.4621 5.17678 15.8554 5.27945 16.2048 5.47433C16.5543 5.66922 16.8483 5.94991 17.0593 6.28993C17.2702 6.62995 17.391 7.01809 17.4103 7.41774C17.4297 7.81739 17.3469 8.21538 17.1698 8.57418C16.9335 9.03725 17.1182 9.60361 17.5804 9.84083Z" fill="white"/>
<path id="Vector_3" d="M12.7031 8.47055C12.7031 9.24963 13.3369 9.88251 14.1151 9.88251C14.8942 9.88251 15.527 9.24875 15.527 8.47055C15.527 7.69148 14.8933 7.05859 14.1151 7.05859C13.336 7.05859 12.7031 7.69236 12.7031 8.47055Z" fill="white"/>
</g>
</svg>
